<svg xmlns="http://www.w3.org/2000/svg" viewBox="0 0 150.48 116.97"><defs><style>.cls-1{fill:#89ba17;}.cls-2{fill:#96bd0d;}</style></defs><g id="Calque_2" data-name="Calque 2"><g id="Calque_1-2" data-name="Calque 1"><path class="cls-1" d="M45.89,14.25a5.78,5.78,0,0,1-.71,1.43c-.7,1.11-1.3,2.29-2.07,3.4a22.39,22.39,0,0,1-2.84,3.48c-.91.87-2.2,1.56-3.35.6s-1.07-2.46-1-3.67a21.87,21.87,0,0,1,.68-3.75c0-.05,0-.59.11-.76a2,2,0,0,0,0,.35c0-.16.09-.32.15-.49h-.07a4.39,4.39,0,0,1,.37-1.61c.16-.53.34-1.08.52-1.61.34-1,.7-2,1-2.94a17.79,17.79,0,0,1,1.21-2.85q.32-.66.69-1.32c.07-.11.58-1.11.7-1.09l-.18.4.74-1.27,0,0a5.93,5.93,0,0,1,.39-.67l.54-.72A3.06,3.06,0,0,1,44,.07C45-.28,45.92.75,46.09,1.64l0,0v.12c.18,1.38-.65,3-1.27,4.24a8.79,8.79,0,0,1-1.35,2.24,9.6,9.6,0,0,0-.93,1.44,41.76,41.76,0,0,1-2.89,4.12,2.35,2.35,0,0,0-.53.95c-.14.44-.25.87-.36,1.33s-.24.92-.35,1.38a6.61,6.61,0,0,0-.22.89,5,5,0,0,0-.13.85l.18-.69c.12.18,0,.87-.07,1.07a7.53,7.53,0,0,0,0,1.07c0,.44,0,1.42.63,1.49.82.08,1.66-1.1,2.06-1.59a32.73,32.73,0,0,0,2.54-3.66c.42-.65.82-1.3,1.21-2a8.9,8.9,0,0,1,.79-1.34c.54-.56.61.29.52.65m-8.83,1.5c-.09,0-.2.48-.26,1v0a16.81,16.81,0,0,0-.26,2.47l.06-.74v.07a2.32,2.32,0,0,1,.06-.45,10.69,10.69,0,0,1,.41-2.2.17.17,0,0,1,0-.07s0-.09,0-.07m3-4C41.75,9,43.71,6.14,44.72,3.06a24.25,24.25,0,0,1-1.49,3.18c-.32.58-.62,1.16-1,1.73a10.26,10.26,0,0,0-.77,1.25,10.18,10.18,0,0,1,1.07-1.85l1-1.8a9.67,9.67,0,0,0,1.41-3.75v0c0-1.21-1,.18-1.2.44a21.24,21.24,0,0,0-1.56,3.27c-.85,2.05-1.49,4.25-2.15,6.28m.65-6.4a.15.15,0,0,0,0,.09c.51-.93,1.12-1.81,1.6-2.77-.23.41-.66.78-.89,1.22s-.48.95-.69,1.46"/><path class="cls-1" d="M54.11,14l-.72,1L52.13,16.6c-.33.42-.73.81-1.06,1.23s-.65,1-1,1.39a6.57,6.57,0,0,1-1.49,1.22,1.6,1.6,0,0,1-1.23.14,3.29,3.29,0,0,1-1.61-.94.9.9,0,0,1-.27-.43,2.89,2.89,0,0,1-.06-.45,2.5,2.5,0,0,1,.11-.76c0-.3.17-.57.22-.87s.13-.62.17-.92a4.76,4.76,0,0,1,0-.84c0-.18.18-.37.25-.58a1.94,1.94,0,0,0-.21.4c-.07.18-.11.36-.18.53s-.09.34-.16.52a2,2,0,0,0-.2.62c0,.21,0,.41,0,.62a2.3,2.3,0,0,0-.08.57c0,.07.05.21.05.25s0,.21,0,.32.06.41.09.64a2.68,2.68,0,0,1-.24-2c.11-.68.19-1.35.34-2a8.92,8.92,0,0,1,1.79-3.78,3.15,3.15,0,0,1,3-1.48,2.21,2.21,0,0,1,1.34.65,1.53,1.53,0,0,1,.18,1.48A5.38,5.38,0,0,1,50,14.39a8.28,8.28,0,0,1-1,.73,4.26,4.26,0,0,1-.76.33l-.41.15c-.17.05-.19,0-.26.17s0,.45-.08.68-.11.57-.17.87a4.19,4.19,0,0,0-.13,1.83c.29,1.15,2.27-.69,2.62-1s.45-.44.66-.65.26-.26.36-.4a.71.71,0,0,0,0-.16,12,12,0,0,1,1-1.27c.42-.49.79-1,1.19-1.54.21-.3.7-1.15,1.09-.55v0s0,0,0,0c.1.18,0,.29-.09.43m-6.17.69a7.17,7.17,0,0,0,2-1.57l.4-.51c.07-.12.19-.19.23-.33s0-.2,0-.34l.09-.48c0-.23-.09-.82-.45-.74a1.11,1.11,0,0,0-.43.37l-.42.56a15.21,15.21,0,0,0-1.08,2.23.17.17,0,0,1,0,.07c-.12.23-.18.48-.3.74"/><path class="cls-1" d="M62.74,13.69c.12.73-1.07,1.35-1.57,1.7A16.92,16.92,0,0,1,59,16.76a5.17,5.17,0,0,0-.66.34c-.26.21-.21.18-.16.55a7.36,7.36,0,0,1,.15,1.25,4.58,4.58,0,0,1-.25,1.9,3.4,3.4,0,0,1-3.34,2.35c-1.47,0-3.05-.68-2.77-2.19,0,0-.08.43-.11.41s0-.59,0-.71a4.62,4.62,0,0,1,1.73-2.07c.4-.3.8-.61,1.21-.87s1-.48,1.06-.8a4,4,0,0,0-.36-1.33,12,12,0,0,1-.35-1.34,4.65,4.65,0,0,0,0-.75,4.19,4.19,0,0,1-.29-1.09A2.57,2.57,0,0,1,55,11.27c.18-.56,1.43-1.84,2.09-1.28,0-.12.32.31.35.45s-.08.93-.22.91,0-.2.06-.36A3.37,3.37,0,0,0,57,12a2.74,2.74,0,0,0,.09.91s0-.09,0-.11.27,1.18.51,2.13c-.18-.61-.42-1.34-.52-1.77.21,1,.48,2,.74,2.95,0,0,0-.07,0-.18,0,.06,0,.11,0,.13a32.14,32.14,0,0,0,3-1.64,12,12,0,0,1,1.32-1c.24-.1.43-.06.51.26Zm-8.48,8,.67-.26s-.19.16-.19.18a2.57,2.57,0,0,0,.73-.63l-.12.09a5.8,5.8,0,0,0,.65-1.2,5,5,0,0,0,.11-1.64.47.47,0,0,1-.17.09l.17-.14-.29.17c.14-.05-.31.3-.38.35l-.71.47a5.91,5.91,0,0,0-1.34,1.15c-.21.3-.82,1.25-.19,1.42a2.12,2.12,0,0,0,1.06-.05m3.19-.55a4.23,4.23,0,0,1-3.07,1.62,5.36,5.36,0,0,0,1.87-.43,2.4,2.4,0,0,0,1.2-1.19m.25-6a5.37,5.37,0,0,1,.16.64,5.36,5.36,0,0,1-.16-.64m.5,2.89s0,.09,0,.11,0-.07,0-.11"/><path class="cls-2" d="M27.93,19.56a.33.33,0,0,1,.17-.08.05.05,0,0,0,0-.05v0c1-.35,1.24,1.1.83,1.84-.16.25-1.73,1.84-2,1.6-.05,0,.29-.33.33-.37A13.55,13.55,0,0,0,24.44,25a7,7,0,0,0-.53.55c-2.57,2.23-5,4.74-7.36,7.09-3.1,3.06-5.42,6.62-8.16,10,1-1.17,2-2.38,3-3.59,1.89-2.24,4-4.3,6.15-6.4-1,1.29-2,2.54-3.08,3.79s-2.14,2.18-3,3.42l.29-.21a23.87,23.87,0,0,0-1.54,2.32c-1.23,1.7-2.45,3.36-3.54,5.18.6.14,1.24.08,1.88.22a6,6,0,0,1,1.73.67,13.85,13.85,0,0,0,3.33,1,11,11,0,0,0,7.11-1.9c.29-.17,1.62-1.35,2-1s-.34,1.1-.51,1.31A12,12,0,0,1,17.55,51c-2.18,1.12-4.21,1.76-6.63.83C9.1,51,7.45,49.16,5.29,49.39a4.56,4.56,0,0,0-2.57,1.3c-.49.46-.72,1.28-1.5,1.06a1.76,1.76,0,0,1-1.1-2.23c.36-.74,1.19-1.37,1.64-2.12a63.35,63.35,0,0,1,3.56-5.82c.65-.87,1.53-1.51,2.14-2.34.21-.21.28-.5.49-.71,0,0,.37-.49.25-.17.16-.2.12-.24.28-.61a8.66,8.66,0,0,1,.73-1C10,35.91,10.73,35,11.47,34c.29-.37,2.37-3.07,2.81-2.76,0,0-.21.25-.16.29l.86-.92c-.49.42.45-.67.58-.79l2-2.09a28.2,28.2,0,0,1,3.64-3.53c-3.41.4-6.91-.78-10.24.31a4.59,4.59,0,0,0-1.93,1.12c-.25.25-.32.74-.66.71-1.2-.17.34-2.52.59-2.82A5.08,5.08,0,0,1,10.12,22a4.83,4.83,0,0,1,2.2-.68,13.9,13.9,0,0,1,2.34-.08c.81,0,1.66-.18,2.48-.13,3.81.24,7.27.28,10.75-1.5ZM11.7,39.62l0,0a0,0,0,0,0,0,0"/><path class="cls-2" d="M44.81,41.25a28.06,28.06,0,0,1-1.76,3.46,32,32,0,0,1-2.44,3.53c-.74.95-1.77,2.16-3,2.4a3,3,0,0,1-3.14-2c-1.11-2.35-.46-4.88.22-7.22a4.55,4.55,0,0,1,0-.64c-.41.62-1,1.37-1.35,1.94-.48.79-.84,1.57-1.37,2.32-.25.37-3.61,4.49-4.1,3.82,0,0,.5-.22.46-.3a2.27,2.27,0,0,1-1.78.3c.13.08.21.12.17.12-1,.15-1.79-1.28-2-1.92a7.58,7.58,0,0,1-.16-3.51,18.51,18.51,0,0,1,2.71-7,6.07,6.07,0,0,1,1.27-1.46,7.27,7.27,0,0,1,1-.6,3.13,3.13,0,0,1,2.1-1.05c2.09-.07,3,2.17,3.5,3.69,1-1.29,2.76-3,4.4-1.24.88.94.35,1.69-.09,2.59a18.06,18.06,0,0,0-1.63,4.67c0-.12.14-.73.31-.78.34-.09-2.42,9.15,1.8,3.87,1.27-1.63,2.36-3.32,3.46-5,.49-.78,1-1.61,1.5-2.4.24-.33,1-1.12,1.06-.24s-.79,1.89-1.11,2.67M33.88,38.63c0-.33-.94-2.52-.73-2.69,0,0,.46,1.12.51,1.2-.15-.48-.37-2-1.14-2-1.41.05-2.39,2.55-2.83,3.5a22.8,22.8,0,0,0-1.76,5.81c.1-.61,2.33-8,3.1-8-.59.14-2.64,6.44-2.75,7-.08.33-.69,2.45,0,2.63.43.11,1.41-1.18,1.61-1.47a36.63,36.63,0,0,0,2.21-3l1.06-1.53a8.63,8.63,0,0,1,.57-.87.8.8,0,0,0,.19-.65m.12-.29v.41c.12-.13.12-.25,0-.41m1.08,1.91-.2.29c0,.12-.15.69-.15.69Z"/><path class="cls-2" d="M59.89,41.23c-.9,1.16-1.72,2.4-2.7,3.49-.74.79-2,2.13-3.19,1.81-.26-.08-1.86-.83-1.83-1l.13.07L52,45.34c.22.32-.26-.07-.3-.07a3.24,3.24,0,0,1-.54-.75,2.9,2.9,0,0,1-.3-1.33A12.19,12.19,0,0,1,51,41.85a11.17,11.17,0,0,1,.34-2.64c.08-.2.9-2.5,1.2-2.43.08,0-.12.29-.07.33L53,36c-.08.08-.12.16-.2.21a7.78,7.78,0,0,1,.6-1.2c-.83,1-1.47,2-2.21,3a19.86,19.86,0,0,0-1.56,1.83,50.6,50.6,0,0,0-2.58,4.38l-.19-.32c-.73.92-1.92-.09-2.37-.77a2.51,2.51,0,0,1-.23-1.85,9.92,9.92,0,0,1,.19-2,25.23,25.23,0,0,1,.85-2.54c.27-.86.54-1.72.85-2.58a13.48,13.48,0,0,0,.71-1.76c.11-.45,0-.73.52-1.07A2.49,2.49,0,0,1,49,31c.69.1,1.95.75,1.26,1.78-.29.38-.79.8-1.11,1.21a2.53,2.53,0,0,0-.48,1.19c-.07.33-.4.62-.56.95a9.25,9.25,0,0,0-.55,1.56,6.73,6.73,0,0,0,0,.89c-.06.85-.33,1.71-.38,2.56,0-.16.32-.45.37-.41s-.41.74-.36.74l2.4-3.56c-.54.7-1,1.2-1,1.2s4.74-6.39,5.32-6.94c1.2-1.13,2.78-1.14,3.44.74s-1.42,3.4-2.39,4.89a23.36,23.36,0,0,0-1.37,2.68,7.75,7.75,0,0,0-.93,2.62,7.62,7.62,0,0,1,.66-1.76,5.52,5.52,0,0,1,1.43-2.19c-.29.53-.61,1-.85,1.52l.21-.25a8,8,0,0,1-.38,1.47,6.22,6.22,0,0,0-.34,1.55,3.81,3.81,0,0,0,0,.69l0,0s.3-.09.38-.14a6.15,6.15,0,0,0,1.75-1.23c1-.8,2-1.68,2.91-2.53a27.1,27.1,0,0,0,2.19-2c.25-.38.82-1,1.07-.08s-1.37,2.39-1.86,3.06"/><path class="cls-2" d="M70.13,39.75c-.69,1-1.34,2-2.12,3s-1.82,2.9-3.3,3.27c-.34.05-2-.3-1.94-.54h.08c-.34-.15,0,.2-.52-.15a3.17,3.17,0,0,1-.92-.94,5.24,5.24,0,0,1-1.3-1.81c0-.2-.19-1.66.15-1.67.09,0,0,.2.05.2l.11-.73c0,.08,0,.12-.13.17a16.88,16.88,0,0,1,.62-3.18c.32-.86.45-1.84,1.29-2.35A2.45,2.45,0,0,1,64.46,35c.35.11,1.34.48,1.35.89,0,.24-.2.29-.32.41a.24.24,0,0,1,.16,0c.14.07-.48.94-.56.91s0-.21.07-.33A20.09,20.09,0,0,0,63.3,41a17.15,17.15,0,0,1,1.31-2.8c.13,0-2.65,5-1.18,5.63.7.3,1.81-.75,2.27-1.13a17.86,17.86,0,0,0,2.45-2.15c-.08.09-.17.09-.3.09-.17-.19,1.87-2.93,2.24-3.19s.89-.39,1,.13c.2.76-.54,1.68-1,2.22M63,42.3l-.08.32.08-.24v0c0-.08,0-.08,0,0m.21-10c0-.12-.21-1.37.26-1.18,0-.12.49-.74.25-.21a9.55,9.55,0,0,0,1-1.69l-.49.74a15.63,15.63,0,0,0,.94-2.54s-.1-.4,0-.48c-.9-.3-.28-.8.1-1.1-.09,0-.13,0-.18-.07s.33-.3.46-.34a2.45,2.45,0,0,1,1.93.09,3,3,0,0,1,1.11,1.34,1.55,1.55,0,0,1-.59,1.48c-.17.17-.46.3-.67.47s-.19.65-.4.94-.37.3-.49.5-.16.25,0,.37a1.4,1.4,0,0,0-.42.3,4.37,4.37,0,0,1-1.15,1.41,4.06,4.06,0,0,0,1.16-1.09,2.94,2.94,0,0,1,1.21-.93c-.41.46-.48,1-1,1.33s0-.29-.59.22c0,0,.26-.05.13,0A5.1,5.1,0,0,1,64.43,33c-.25.09-.41.26-.72.14s-.18-.31-.27-.43a3.46,3.46,0,0,1-.27-.4m.31-1.18a0,0,0,0,1,0,0s0,0,0-.09,0,.05-.08.05M64.12,30a1,1,0,0,1-.16.25Z"/><path class="cls-2" d="M93.85,40.16c-1,1.49-2,3-3.19,4.44-.77,1-2.2,3-3.69,3.08-.3,0-2.11-.46-2-.78l0,0c-.09,0-.09-.11-.14-.19,0,.08-.61-.47-.7-.67a4.37,4.37,0,0,1-.52-1.44,14.53,14.53,0,0,1-.21-2.34,6.78,6.78,0,0,1,.35-2.44c0-.16.72-2.45,1-2.42,0,0-.12.33,0,.37.12-.41.27-.82.43-1.27a.85.85,0,0,1-.17.25S86,34,86.23,33.5c-1.36,1.3-2,3.06-3.39,4.4a20.56,20.56,0,0,0-2.19,3.68c-.56,1-1.06,2.46-2.47,1.25a2,2,0,0,1-.73-1.23,4.73,4.73,0,0,1,.25-1.54,5,5,0,0,0,0-1.09c.12-1.47,1.05-2.91,1.56-4.31.11-.45,1.39-3,.71-3-.09,0-.7.84-.82,1a18,18,0,0,0-1.39,1.83c-1.34,2.11-2.17,4.2-3.29,6.39-.44.86-.79,1.72-1.19,2.55a12.75,12.75,0,0,0-.56,1.19,2.19,2.19,0,0,1-.07.53c-.4.74-2.1-.26-2.54-.73-.93-1-.62-1.92-.7-3a11.28,11.28,0,0,1,.87-4.4,13.7,13.7,0,0,1,.79-2.09,9,9,0,0,0,.68-1.12c.12-.2-.05-.4.32-.57s.73.09,1,.29a6.68,6.68,0,0,1,.8,1c.22.28.66.46.51,1,0,.08-.08.16-.12.24-.25.42-.62.79-.9,1.21a1.71,1.71,0,0,0-.37.62c-.07.28,0,.4-.06.69-.11.57-.43,1.06-.54,1.63a6.22,6.22,0,0,0-.22,1.19,4.85,4.85,0,0,1,.13,1.16c.6-1,.86-2.21,1.42-3.28.64-1.32,1.28-2.72,2-4,.65-1,1.42-2,2.07-3.1.53-.87,1.42-2.12,2.53-2.27a2.38,2.38,0,0,1,2.48,2.79c-.26,1-.87,2.05-1.22,3-.46,1.43-.84,2.9-1.22,4.33a30.55,30.55,0,0,1,1.73-3l-.81,1.12a47,47,0,0,1,3.75-5.19c1.12-1.09,3.51-2.3,4.23-.1.62,1.92-.37,4.22-1,6a29.64,29.64,0,0,0-1.84,5,.76.76,0,0,1,.16-.25s-.23,1.95.16,2c.81.13,2.4-2.11,2.86-2.61,1.11-1.25,2.17-2.58,3.24-3.87.2-.25,2-2.74,2.33-1.86,0,.08,0,0,0,0,.29,1-.82,2.41-1.34,3.2m-14-5.4v.05c.23-.62.94-2.55.66-3.1.19.64-.75,3.18-.9,3.51-.4.94-.88,1.89-1.19,2.87a8.93,8.93,0,0,0-.5,2.85,10.26,10.26,0,0,1,.76-2.7c.39-1.1.61-2.28,1.09-3.31a.58.58,0,0,1,.08-.12h0Z"/><path class="cls-2" d="M114,38.91a29.74,29.74,0,0,1-4.21,7c-.73,1-1.76,2.17-3,2.41a3,3,0,0,1-3.14-2c-1.11-2.34-.47-4.88.22-7.21a5.94,5.94,0,0,1,0-.65c-.4.63-1,1.37-1.34,2-.48.79-.84,1.57-1.37,2.32-.25.37-3.61,4.49-4.1,3.82,0,0,.5-.22.46-.3a2.31,2.31,0,0,1-1.78.3c.13.08.21.12.17.12-1,.15-1.79-1.28-2-1.92a7.45,7.45,0,0,1-.16-3.51,18.62,18.62,0,0,1,2.71-7,6.47,6.47,0,0,1,1.27-1.46,9,9,0,0,1,1-.6,3.17,3.17,0,0,1,2.1-1c2.09-.07,3,2.17,3.49,3.69,1-1.29,2.76-3,4.4-1.24.89.94.36,1.68-.08,2.59a18.06,18.06,0,0,0-1.63,4.67c0-.12.14-.74.31-.78.34-.09-2.42,9.15,1.8,3.86,1.27-1.62,2.36-3.32,3.46-5,.48-.79,1-1.61,1.49-2.4.25-.33,1-1.13,1.07-.24s-.79,1.89-1.11,2.67M103,36.29c0-.33-.94-2.52-.74-2.69a10.07,10.07,0,0,1,.51,1.2c-.14-.48-.36-2-1.13-1.95-1.41,0-2.39,2.55-2.83,3.5a23.16,23.16,0,0,0-1.77,5.8c.11-.61,2.34-8,3.11-8-.6.14-2.64,6.44-2.75,7-.08.33-.69,2.45,0,2.63.43.11,1.41-1.18,1.61-1.47.78-1,1.52-1.95,2.21-3l1.05-1.53c.17-.29.37-.58.57-.87a.78.78,0,0,0,.2-.65m.11-.29,0,.4c.12-.12.12-.24,0-.4m1.09,1.91-.2.29c0,.12-.15.69-.15.69Z"/><path class="cls-2" d="M132.57,37.31a17.1,17.1,0,0,1-2.13,2.78c-1.19,1.3-2.91,3.42-4.91,3.61a2.67,2.67,0,0,1-2.48-1.09c-.94-1.51-.07-3.48.44-4.91-1.07,1.29-2.09,2.58-3.12,3.91-.28.37-3.42,3.6-3.86,3.08,0,0,.37-.21.33-.25a2.88,2.88,0,0,1-1.35.49.28.28,0,0,0,.21,0c.1.28-1.15-.12-1.28-.2a2.88,2.88,0,0,1-.87-1.59,9,9,0,0,1,.21-3.85,21.63,21.63,0,0,1,1.15-3.84c.28-.66.78-1,1.06-1.57a8.15,8.15,0,0,1,1.9-3.11,2.54,2.54,0,0,1,2.9-.05c.79.54.37.84,0,1.41a.74.74,0,0,1,.25-.25c.09,0-.87,2-1.09,2a5,5,0,0,1,.24-.65c-.52.94-1,1.93-1.44,2.92A.28.28,0,0,1,119,36c-.09,0-1.5,3.77-1.61,4.1-.15.61-.86,2.42.28,2s2.36-2,3.1-2.89a37.72,37.72,0,0,0,2.66-3.58c.89-1.36,1.93-3.62,4.12-3.13,1.94.46.55,2.45,0,3.6.09-.08.17-.21.21-.17.27.28-.53,1.84-.65,2.25a9.76,9.76,0,0,0-.55,2.53c0,1,.28.68.94.17A36.86,36.86,0,0,0,131.28,37c.08-.08,2-2.29,2.13-1.53.05.48-.6,1.4-.84,1.81M118,38.17c-.43,1.11-1.27,2.75-1,3.92a16,16,0,0,1,1-3.92m5.7-.64a.41.41,0,0,0-.16.37,1.48,1.48,0,0,1,.16-.37M127.93,34c-.39,1-1.63,2.36-1.25,3.36a.15.15,0,0,1,0,.12.2.2,0,0,0,.08-.13,4.33,4.33,0,0,0,.23-.77c.27-.86.67-1.68,1-2.58"/><path class="cls-2" d="M149,38.09a29.31,29.31,0,0,1-2.49,3.6,28.13,28.13,0,0,1-2.91,3.5,9,9,0,0,1-1.84,1.24,6.47,6.47,0,0,1-1.08.81l.08-.09-.21.09c.26-.05-.45.46-.49.5a1.91,1.91,0,0,1-.68.19,1.55,1.55,0,0,1-.38,0,4.3,4.3,0,0,1-3.19-1.88,8.09,8.09,0,0,1-3.18,3.07c-.71.3-2.14-.09-1.49-1,.17-.24.59-.34.84-.47a6,6,0,0,0,1.33-1c.46-.5.82-1.08,1.27-1.62a1.81,1.81,0,0,0,.53-.78,4.65,4.65,0,0,1-.11-.65c.09,0,.1.24.18.24l-.29-1a.4.4,0,0,1,0,.24,29.7,29.7,0,0,1-.79-4.47,23.86,23.86,0,0,1-.17-2.5,4.88,4.88,0,0,1,.41-1.71,2.35,2.35,0,0,1,1.18-1.58,2.62,2.62,0,0,1,1.65-.46,1.28,1.28,0,0,1,1.14.65c.14.4-.16.53-.19.85a.21.21,0,0,1,.12-.16c.09,0,0,1.54-.16,1.54a4,4,0,0,1,0-.69,54.29,54.29,0,0,0-.15,5.84c.21-.33-.11-3.52.14-3.53,0,0,0,3,0,3.32.05,0,.95-1.25,1.12-1.17s-.08.12,0,.2l.41-.58a.19.19,0,0,1-.17.09,33.9,33.9,0,0,1,2.57-3.53c.5-.54.76-.47,1.26-.73s.74-.75,1.47-.82a1.21,1.21,0,0,1,.38,0c.43,0,1.13.53.72,1-.25.25-.43,0-.68.1a.35.35,0,0,1,.17,0c0,.16-.92.43-1,.39a2.4,2.4,0,0,1,.38-.29,10.41,10.41,0,0,0-3.28,3c.17-.16,1.2-1.29,1.78-1.84a55.84,55.84,0,0,0-3.6,4.7c-.24.45-.44.9-.72,1.32-.45.58-.66.75-.55,1.51s.28,2.06,1,2.32,1.73-.79,2.14-1.17a28.42,28.42,0,0,0,4-3.65c-.09,0-.17.12-.29.17s1.26-1.87,1.42-2.07c.65-.88,1.31-1.75,1.92-2.62.24-.37.92-1.73,1.34-1.87a.61.61,0,0,1,.75.51c.08,1.09-1,2.09-1.48,2.92m-10.73,6.23a10.23,10.23,0,0,1-.2-1.08V43c-.17.17.07.93.21,1.37"/><path class="cls-2" d="M61.77,60.57c-.38.41-.73.86-1.09,1.31-.74.94-1.29,2-2,3-.58.75-1.52,2.11-2.57,1.19-.85-.72-.71-2.17-.66-3.12a17.65,17.65,0,0,1-1.75,1.6,1.72,1.72,0,0,1-1.21.47c-1.5-.22-1.38-2.19-1-3.16a13.08,13.08,0,0,1,.6-1.76,3.7,3.7,0,0,1,1.59-1.75c.87-.38,1.73.53,2.27,1.06a29.17,29.17,0,0,1,1.58-4.67s.14-.58.29-.7a1.22,1.22,0,0,0-.19.5,4.14,4.14,0,0,1,.28-.61h0c0-.07.27-.66.32-.73a9,9,0,0,1,.52-.79,3.27,3.27,0,0,1,1.26-1,1.61,1.61,0,0,1,2.06.53c.43,1-.22,2.21-.69,3.06-.3.52-.61,1.05-1,1.56l-.46.63-.17.19s0-.07,0-.09l-.14.2h0l-.06.08-.76,1.08c.09-.11.23-.3.27-.28l-1.32,1.77a4.57,4.57,0,0,0-.54,2.23c-.06.39-.44,3,.22,2.92.17,0,.38-.32.47-.44a11.49,11.49,0,0,0,.74-.95c.47-.67.92-1.34,1.38-2A21,21,0,0,1,61.52,60c.1-.1.91-1.13,1-.54v0c.08.45-.51.83-.8,1.14m-6.12.31c.06-.33.18-.64,0-.92a2.56,2.56,0,0,0-.6-.67.44.44,0,0,0-.36-.11.07.07,0,0,0-.06,0l.09-.05c-.39.05-.67.68-.86,1.06a12.49,12.49,0,0,0-.91,2.43c-.06.29-.39,1.33.06,1.49.23.09.59-.19.81-.4a1.19,1.19,0,0,1-.68.36c-.63,0-.23-1.2,0-1.93-.23.71-.58,1.88,0,1.91s1.08-.76,1.35-1,.58-.57.86-.87A1.83,1.83,0,0,0,55.64,61a.62.62,0,0,1,0-.09ZM53.92,63.6h0a7.65,7.65,0,0,0,.78-.72c.2-.19.77-.61.8-.85-.42.46-.85.89-1.31,1.31Zm.44-4.19s.07-.07.15-.13-.11.13-.15.13m.79-.13a.24.24,0,0,0-.11-.06Zm2-1.57a3.87,3.87,0,0,1-.24.46c-.07.22,0,.45-.1.64,0,0,0,0,0,0a2.83,2.83,0,0,0,.18-.56,1.12,1.12,0,0,0,.13-.5m.44-2c-.09.24-.21.5-.31.7a5.44,5.44,0,0,0-.25.81,3.48,3.48,0,0,0,.26-.63c.08-.27.22-.58.3-.88m.94,1-.05.09c0,.07,0,.11,0,.09-.25.79-.47,1.57-.68,2.36a.31.31,0,0,1,.09-.11.87.87,0,0,0-.19.35l.07-.08.12-.16L58.74,58l-.36.47-.39.43a32.45,32.45,0,0,0,2-3c.52-.89,1.37-2.21,1.24-3.29a.5.5,0,0,0-.23-.47c-.45-.22-.9.63-1.06.91a17.31,17.31,0,0,0-1.43,3.42v0l0,.07v0a.06.06,0,0,0,0,.07.07.07,0,0,0,0,.06m-.05.09a.64.64,0,0,1,0,.09l.07-.18Zm.37,1.86s0,0,0,.05l0-.05m0,0,0,0a.07.07,0,0,0,0,0"/><path class="cls-2" d="M69,59.41l-.56.76-1,1.31c-.25.34-.56.66-.81,1a10.87,10.87,0,0,1-.8,1.12,4.84,4.84,0,0,1-1.15,1,1.28,1.28,0,0,1-1,.13A2.57,2.57,0,0,1,62.43,64a.61.61,0,0,1-.22-.33,1.93,1.93,0,0,1-.06-.36,2.09,2.09,0,0,1,.07-.6c0-.23.13-.45.15-.69s.09-.49.12-.72a3.75,3.75,0,0,1,0-.67c0-.15.13-.29.18-.46a1.44,1.44,0,0,0-.15.31c-.05.15-.08.3-.13.43s-.07.27-.12.42a1.38,1.38,0,0,0-.14.49c0,.16,0,.32,0,.48a1.85,1.85,0,0,0,0,.46s0,.16,0,.19,0,.17,0,.26,0,.32.08.5A2.08,2.08,0,0,1,62,62.18c.07-.54.12-1.07.23-1.6a7,7,0,0,1,1.34-3,2.48,2.48,0,0,1,2.33-1.23,1.83,1.83,0,0,1,1.07.49A1.25,1.25,0,0,1,67.1,58a4.14,4.14,0,0,1-1.38,1.79,5.85,5.85,0,0,1-.77.6,4,4,0,0,1-.59.28l-.32.12c-.13,0-.15,0-.2.14s0,.36-.05.54-.07.45-.12.69a3.34,3.34,0,0,0-.06,1.44c.25.91,1.78-.59,2-.85s.34-.36.5-.53a3.82,3.82,0,0,0,.27-.32.5.5,0,0,0,0-.13,9,9,0,0,1,.76-1c.33-.4.61-.81.91-1.24.16-.24.53-.92.85-.45h0s0,0,0,0c.09.14,0,.24-.05.35m-4.86.67a5.52,5.52,0,0,0,1.54-1.29l.3-.41c0-.09.15-.15.18-.26a2.26,2.26,0,0,1,0-.27l0-.38c0-.18-.09-.64-.37-.57s-.25.21-.33.3l-.32.45a11.2,11.2,0,0,0-.8,1.78.15.15,0,0,1,0,.06c-.08.18-.13.38-.22.59"/><path class="cls-2" d="M82.09,58.81A4.36,4.36,0,0,1,81.56,60c-.53.89-1,1.83-1.56,2.72a18.75,18.75,0,0,1-2.16,2.81c-.71.7-1.71,1.27-2.64.54a3.55,3.55,0,0,1-.88-2.87,18.66,18.66,0,0,1,.46-3s0-.47.07-.6a1.65,1.65,0,0,0,0,.27,3.18,3.18,0,0,1,.11-.38h-.06a3.6,3.6,0,0,1,.26-1.27c.12-.42.25-.86.38-1.28.25-.79.51-1.55.74-2.34a13.51,13.51,0,0,1,.9-2.28c.15-.35.33-.7.52-1,0-.09.43-.88.53-.87l-.14.31.56-1,0,0c.09-.15.21-.42.3-.53l.41-.58a2.39,2.39,0,0,1,1-.91c.82-.3,1.54.5,1.69,1.19l0,0V49a6.4,6.4,0,0,1-.92,3.38,6.88,6.88,0,0,1-1,1.79,6.66,6.66,0,0,0-.7,1.15,34.69,34.69,0,0,1-2.2,3.32,1.82,1.82,0,0,0-.4.75c-.1.35-.18.7-.25,1.06s-.18.73-.25,1.09a6.22,6.22,0,0,0-.16.71,3.94,3.94,0,0,0-.08.67l.12-.54c.11.14,0,.68,0,.85a5.82,5.82,0,0,0,0,.84c0,.34.06,1.12.54,1.17.64,0,1.28-.91,1.59-1.31A23.94,23.94,0,0,0,80.16,61c.32-.52.62-1,.92-1.57a6.5,6.5,0,0,1,.59-1.07c.41-.46.49.21.42.5m-6.93,1.36c-.07,0-.15.39-.18.8v0a14.25,14.25,0,0,0-.15,2l0-.58v.05c0-.12,0-.23,0-.36a9.15,9.15,0,0,1,.28-1.74.15.15,0,0,1,0-.06s0-.07,0,0M77.42,57a33.13,33.13,0,0,0,3.52-7,18.59,18.59,0,0,1-1.11,2.54c-.24.46-.47.92-.73,1.39a7.84,7.84,0,0,0-.58,1,8.17,8.17,0,0,1,.8-1.48L80.05,52a7.58,7.58,0,0,0,1-3v0c0-1-.8.17-.93.37A17.87,17.87,0,0,0,79,52c-.63,1.63-1.09,3.38-1.57,5m.39-5.06a.1.1,0,0,0,0,.07c.38-.74.84-1.44,1.2-2.22-.17.33-.5.64-.67,1s-.36.76-.51,1.16"/><path class="cls-2" d="M90.55,59.3a13.1,13.1,0,0,1-.76,1.55,14.51,14.51,0,0,1-1.06,1.58,2.57,2.57,0,0,1-1.34,1.09A1.32,1.32,0,0,1,86,62.65,4.45,4.45,0,0,1,86,59.44a2.35,2.35,0,0,1,0-.28c-.17.27-.42.61-.58.87s-.37.7-.6,1c-.1.17-1.57,2-1.8,1.72,0,0,.23-.1.21-.13a1.11,1.11,0,0,1-.8.15c.06,0,.1,0,.08,0-.43.07-.8-.56-.91-.84a3.31,3.31,0,0,1-.1-1.56,8.24,8.24,0,0,1,1.16-3.14,2.69,2.69,0,0,1,.56-.66,4,4,0,0,1,.44-.27,1.41,1.41,0,0,1,.93-.48c.93,0,1.36.94,1.58,1.62.43-.58,1.21-1.36,2-.58.4.41.17.74,0,1.15a8,8,0,0,0-.7,2.09c0-.06.06-.33.14-.35s-1,4.08.82,1.71c.55-.73,1-1.5,1.51-2.26.21-.35.42-.72.65-1.07.1-.15.43-.51.47-.12s-.34.85-.48,1.2m-4.88-1.1c0-.14-.43-1.11-.34-1.19a4.64,4.64,0,0,1,.23.53c-.06-.21-.17-.87-.51-.86-.63,0-1,1.15-1.24,1.58a10.13,10.13,0,0,0-.75,2.59c0-.27,1-3.58,1.33-3.58a14.47,14.47,0,0,0-1.18,3.14c0,.15-.29,1.09,0,1.17s.62-.53.71-.66a16.41,16.41,0,0,0,1-1.35l.46-.69a4.25,4.25,0,0,1,.25-.39.32.32,0,0,0,.08-.29m0-.13v.18c.06,0,0-.11,0-.18m.5.84-.09.13-.06.31Z"/><path class="cls-2" d="M35.57,60.92c-1,1.22-1.9,2.33-2.85,3.49A19.36,19.36,0,0,0,31.54,67l-2.18,4.45c-1.23,2.71-2.31,5.43-3.38,8.14a32.16,32.16,0,0,0-1.68,4.28,29.66,29.66,0,0,1-1.21,4c-1.94,4.85-3.72,9.85-7,14.07a3.63,3.63,0,0,1-2.95,1.83,9.07,9.07,0,0,1-4.06-.92c-2.7-1.32-4.19-4-5-6.69a27.56,27.56,0,0,1-1-8.65c0-.67-.66-4.68.09-4.95s1.13,1.31,1.25,1.82a57.74,57.74,0,0,0,1.75,8.58,39,39,0,0,0,1.64,4.29c.41,1,1,2.41,2.09,2.89,2.15,1,3.74-2.94,4.36-4.24a163.67,163.67,0,0,0,6.79-17.22C23,73.13,25,67.3,28.14,62.2c-1.51.61-3,.86-4.49,1.31-1.35.4-2.64,1.1-4,1.5-1.73.51-5.58,1.28-6.13,3.21-.25,1,.65,2.1,1.27,2.8.34.41,2.06,1.55,1.58,2.13a3.94,3.94,0,0,1-1,.44,4.91,4.91,0,0,1-2.92-1.37l-1.17-1A3.37,3.37,0,0,1,10,70.12a2.73,2.73,0,0,1-.52-1.38c.06-1.81,1.73-2.32,3.08-3a39.28,39.28,0,0,1,6.8-2.24c.71-.23,1.08-.55,1.73-.82a29,29,0,0,1,3.4-1.07c1.51-.51,3-1,4.54-1.41.65-.23.44,0,1-.49a6.82,6.82,0,0,0,.68-.9c1.06-1.21,5.09-1.17,5.42.84a1.86,1.86,0,0,1-.51,1.3M27.23,71.26A34.29,34.29,0,0,0,25.53,75l-3.2,8.6c.86-2.29,2-4.18,2.93-6.43.83-1.77,1.2-4.11,2-5.94"/><path class="cls-2" d="M54.45,84.8a21.31,21.31,0,0,1-2.74,3.53C50.18,90,48,92.66,45.4,92.89a3.38,3.38,0,0,1-3.14-1.42c-1.2-1.93-.06-4.44.6-6.26-1.38,1.63-2.7,3.27-4,5-.37.47-4.41,4.55-5,3.9,0,0,.48-.27.43-.32a3.76,3.76,0,0,1-1.73.61.47.47,0,0,0,.28,0c.11.35-1.48-.17-1.65-.27a3.85,3.85,0,0,1-1.09-2,11.65,11.65,0,0,1,.31-4.91,26.61,26.61,0,0,1,1.51-4.9c.36-.83,1-1.26,1.36-2a10.36,10.36,0,0,1,2.46-3.94,3.25,3.25,0,0,1,3.7,0c1,.7.47,1.07,0,1.81a.81.81,0,0,1,.32-.32c.11,0-1.13,2.56-1.41,2.52a5.73,5.73,0,0,1,.31-.84c-.68,1.21-1.3,2.46-1.87,3.72a.41.41,0,0,1,.33-.22c-.11,0-1.95,4.8-2.1,5.22-.2.78-1.12,3.08.34,2.57s3-2.56,4-3.66a47.69,47.69,0,0,0,3.42-4.54c1.16-1.73,2.5-4.61,5.29-4,2.47.61.68,3.14,0,4.6.11-.11.21-.26.27-.21.33.35-.7,2.34-.85,2.86a12.9,12.9,0,0,0-.74,3.22c0,1.24.35.87,1.21.23a48.33,48.33,0,0,0,4.83-4.88c.11-.11,2.54-2.91,2.73-1.93.07.62-.77,1.78-1.09,2.3m-18.66,1c-.56,1.4-1.65,3.5-1.29,5a20.29,20.29,0,0,1,1.29-5M43.07,85a.5.5,0,0,0-.21.47,1.79,1.79,0,0,1,.21-.47m5.49-4.54c-.51,1.31-2.1,3-1.63,4.28a.18.18,0,0,1,0,.16c.06-.06.11-.11.11-.16a5.73,5.73,0,0,0,.3-1c.35-1.1.87-2.14,1.27-3.29"/><path class="cls-2" d="M73.34,86.16c-1.16,1.48-2.2,3-3.48,4.43-1,1-2.54,2.7-4.08,2.28-.33-.1-2.37-1.08-2.32-1.34l.16.1-.33-.3c.28.41-.33-.09-.38-.09a3.78,3.78,0,0,1-.68-1,3.67,3.67,0,0,1-.37-1.69A16.36,16.36,0,0,1,62,86.87a14.18,14.18,0,0,1,.46-3.37c.1-.26,1.17-3.18,1.55-3.08.11,0-.15.36-.09.41l.72-1.46c-.11.1-.16.21-.27.26a11.68,11.68,0,0,1,.78-1.51c-1.06,1.21-1.89,2.47-2.84,3.74a23.5,23.5,0,0,0-2,2.32,64.43,64.43,0,0,0-3.34,5.56l-.23-.4c-1,1.16-2.46-.15-3-1A3.27,3.27,0,0,1,53.39,86a15,15,0,0,1,.26-2.53c.3-1.1.71-2.14,1.12-3.23s.7-2.19,1.11-3.29a15.06,15.06,0,0,0,.92-2.24c.15-.57,0-.93.68-1.36a3.11,3.11,0,0,1,2.06-.26c.87.13,2.48,1,1.58,2.28-.36.47-1,1-1.43,1.53a3.16,3.16,0,0,0-.61,1.52c-.1.41-.52.79-.73,1.2a10.87,10.87,0,0,0-.71,2,7.16,7.16,0,0,0-.08,1.13c-.08,1.09-.43,2.18-.51,3.27,0-.21.42-.58.47-.53s-.52,1-.46.94l3.09-4.52c-.68.9-1.21,1.53-1.21,1.53-.17-.1,6.11-8.11,6.85-8.8,1.54-1.44,3.56-1.44,4.39,1,.94,2.56-1.85,4.34-3.11,6.23a28.88,28.88,0,0,0-1.76,3.4,9.91,9.91,0,0,0-1.22,3.34A9.79,9.79,0,0,1,65,86.28a7.09,7.09,0,0,1,1.84-2.79c-.36.68-.78,1.31-1.09,1.94l.26-.31a9.36,9.36,0,0,1-.5,1.87A7.7,7.7,0,0,0,65,89a4.23,4.23,0,0,0,0,.88l0,0s.38-.11.49-.17a8.1,8.1,0,0,0,2.25-1.56c1.28-1,2.5-2.13,3.73-3.19a33.87,33.87,0,0,0,2.82-2.61c.31-.47,1-1.31,1.36-.08s-1.77,3-2.41,3.88"/><path class="cls-2" d="M99.81,83.45l-4.33,3.31c-1.6,1.29-3.14,2.52-4.64,3.85a23,23,0,0,0-2.18,1.81,5.52,5.52,0,0,0-1,2.45c-1.69,6-3.16,12.22-6.29,17.67-1,1.79-1.81,3.67-4.14,4.3-2.7.69-5-1.32-6-3.51-1.15-2.5-.13-4.85,1.4-7.06a61.29,61.29,0,0,1,4.26-5.54,41.16,41.16,0,0,1,3.4-3.34A40.8,40.8,0,0,0,83.85,94c1-1.21,1.16-3.44,1.61-5l1.1-4a53,53,0,0,1-3.89,5.63c-1.21,1.68-2.41,3.67-4.18,4.75a2.52,2.52,0,0,1-2.39.38c-.38-.15-2.5-1.85-2.29-2.22.06,0,.11.11.17.1l-.18-.35c.13.51-.56-.66-.61-.76a6.8,6.8,0,0,1-.33-2.11A17.26,17.26,0,0,1,73,87.1a7.27,7.27,0,0,1,1.07-2.77c0-.15,1.1-1.88,1.32-1.79,0,0-.21.37-.15.42l.89-1.32a.5.5,0,0,1-.27.17c-.39-.2,4.7-5.65,5.23-6.13A11.11,11.11,0,0,1,84,73.54a4.21,4.21,0,0,1,1.47-.35c.43-.06.59-.27,1-.39a4.48,4.48,0,0,1,4.11,1c.62.61,1,2.66-.36,2.75-.33,0-.5-.2-.77-.34l.16.15a15.94,15.94,0,0,0-2.12.1l.7-.27c-3.25.6-5.93,4.44-7.61,6.86.48-.58,3.33-4.12,4.28-4.91-1,.9-3.85,4.59-4.06,4.9a26.24,26.24,0,0,0-3.48,6.65c-.25.73-1.28,5.1.64,3.6a22,22,0,0,0,4-4.23c-.06,0-.11.1-.16.1s.83-1.46,1-1.67l1.41-2.16c1-1.42,1.94-2.94,2.94-4.36.42-.58,1.1-1.74,1.74-2,2.21-1,5,.8,3.73,3a40,40,0,0,0-3.66,7.69c.27.14,3.2-2.57,3.68-2.94,1.17-1,2.35-1.92,3.58-2.78.91-.7,1.87-1.29,2.78-2,.48-.43,2-2,2.27-.48.25,1-.67,1.42-1.36,2M83.06,97.27a59.15,59.15,0,0,0-6.46,7.14c-1.63,2.16-4.48,5.54-3.54,8.4,1.43,4.51,4.86-1.78,5.59-3.29a82.79,82.79,0,0,0,3.51-9.39,3.57,3.57,0,0,1,.2-.57c.25-.73.51-1.52.7-2.29M80,82.52a3.45,3.45,0,0,1-.58.69,8.64,8.64,0,0,0-1.62,2.63A16.11,16.11,0,0,0,79,84.15Zm-.38,1.93a15.1,15.1,0,0,0-1.1,1.73L79,85.5ZM82.23,103c-.76,2.08-1.74,4-2.67,6.06.47-.84,1.1-1.63,1.57-2.52a25.34,25.34,0,0,0,1.11-3.39Z"/><path class="cls-2" d="M121.78,81.68a13,13,0,0,1-1.61,3.25c-1.57,2.52-2.91,5.19-4.64,7.71a53.33,53.33,0,0,1-6.39,7.91c-2.07,2-5,3.54-7.59,1.39-2.34-2-2.44-5.56-2.34-8.3a49,49,0,0,1,1.52-8.51c0-.11,0-1.34.22-1.71a7.8,7.8,0,0,0-.09.78,7.84,7.84,0,0,1,.36-1.1h-.17c-.19-1,.53-2.65.83-3.64.35-1.2.76-2.45,1.16-3.65.76-2.24,1.57-4.43,2.28-6.67A40.62,40.62,0,0,1,108,62.68c.47-1,1-2,1.56-3,.16-.27,1.3-2.52,1.57-2.47l-.41.89,1.67-2.89-.06.06c.26-.42.62-1.21.89-1.53l1.21-1.63c.74-.9,1.63-2.16,2.87-2.55,2.38-.79,4.4,1.53,4.78,3.54l.06.05v.26c.41,3.14-1.46,6.9-2.86,9.62a20,20,0,0,1-3,5.09,20.68,20.68,0,0,0-2.1,3.26,92.06,92.06,0,0,1-6.51,9.36,5.24,5.24,0,0,0-1.19,2.15c-.3,1-.55,2-.8,3s-.54,2.08-.79,3.12c-.09.46-.54,1.92-.49,2a11.67,11.67,0,0,0-.27,1.92l.39-1.56c.28.41-.11,2-.15,2.43a17.69,17.69,0,0,0-.1,2.43c0,1,.08,3.2,1.45,3.37,1.86.16,3.75-2.52,4.64-3.63a74.35,74.35,0,0,0,5.73-8.31c.94-1.47,1.83-2.94,2.71-4.46a18.89,18.89,0,0,1,1.77-3c1.22-1.28,1.38.63,1.19,1.46m-20,3.47c-.21,0-.46,1.1-.59,2.29v0a38.5,38.5,0,0,0-.56,5.59l.12-1.66v.16a6.18,6.18,0,0,1,.14-1c.28-1.55.29-3.52.9-5a.39.39,0,0,1,.05-.15c.06-.06,0-.21-.06-.16m6.69-9c3.87-6.25,8.27-12.82,10.54-19.8a55,55,0,0,1-3.35,7.21c-.73,1.31-1.41,2.62-2.19,3.93a21.48,21.48,0,0,0-1.72,2.84,23.21,23.21,0,0,1,2.39-4.2l2.18-4.08c1.25-2.51,3.13-5.61,3.16-8.5v0c0-2.74-2.33.42-2.7,1a49.16,49.16,0,0,0-3.51,7.42c-1.89,4.65-3.34,9.64-4.8,14.23m1.41-14.5a.27.27,0,0,0,0,.21c1.14-2.1,2.5-4.1,3.59-6.29-.52.94-1.48,1.79-2,2.79s-1.09,2.14-1.55,3.29"/><path class="cls-2" d="M140.4,81.09l-1.63,2.16-2.85,3.69c-.74,1-1.64,1.85-2.38,2.8s-1.47,2.15-2.37,3.16a14,14,0,0,1-3.36,2.77A3.67,3.67,0,0,1,125,96a7.29,7.29,0,0,1-3.65-2.12,1.89,1.89,0,0,1-.63-1,6.16,6.16,0,0,1-.13-1,5.92,5.92,0,0,1,.23-1.71c.09-.68.4-1.31.49-2s.29-1.4.38-2.08a11.12,11.12,0,0,1,.06-1.91c.1-.41.41-.83.56-1.3a4.47,4.47,0,0,0-.46.89c-.15.41-.25.83-.41,1.2s-.19.78-.35,1.19a4.39,4.39,0,0,0-.45,1.41c0,.46,0,.93,0,1.39a5.81,5.81,0,0,0-.18,1.3c0,.15.12.46.12.56s-.1.47-.09.73c0,.46.14.92.2,1.44a6,6,0,0,1-.55-4.43c.23-1.55.41-3,.75-4.56a20.31,20.31,0,0,1,4-8.58c1.63-2.16,3.82-3.81,6.77-3.38a5.06,5.06,0,0,1,3,1.47,3.48,3.48,0,0,1,.41,3.35c-.65,2-2.41,3.68-4.06,5.06a16.87,16.87,0,0,1-2.24,1.66,9.59,9.59,0,0,1-1.73.77l-.91.34c-.38.11-.44.06-.59.37-.26.53-.09,1-.18,1.56s-.24,1.29-.38,2a9.66,9.66,0,0,0-.28,4.14c.67,2.61,5.14-1.58,5.94-2.33.53-.48,1-1,1.48-1.48.27-.32.59-.59.8-.9a1.64,1.64,0,0,0,.1-.37,28.42,28.42,0,0,1,2.26-2.9c.95-1.11,1.8-2.26,2.69-3.47.47-.69,1.57-2.63,2.47-1.26v0c.05.05.05.05.05,0,.23.41.07.67-.19,1m-14,1.61a15.9,15.9,0,0,0,4.48-3.58l.89-1.16c.16-.26.43-.43.53-.74s-.07-.46,0-.77l.19-1.09c0-.52-.21-1.86-1-1.68a2.52,2.52,0,0,0-.95.85l-.95,1.27a33.52,33.52,0,0,0-2.43,5.07.45.45,0,0,1-.05.16c-.26.52-.41,1.09-.66,1.67"/></g></g></svg>